<svg width="1080" height="1080" viewBox="0 0 1080 1080" fill="none" xmlns="http://www.w3.org/2000/svg">
<mask id="mask0" mask-type="alpha" maskUnits="userSpaceOnUse" x="0" y="0" width="1080" height="1080">
<circle cx="540" cy="540" r="540" fill="white"/>
</mask>
<g mask="url(#mask0)">
<path fill-rule="evenodd" clip-rule="evenodd" d="M920.53 1319.93C917.551 1292.66 915.715 1265.2 914.661 1237.79C913.608 1210.41 914.985 1182.7 915.589 1155.31C916.821 1099.6 918.823 1043.75 914.322 988.12C910.069 935.546 900.305 883.339 884.896 832.824C877.392 808.223 869.485 782.631 857.144 759.899C844.734 737.045 825.077 721.825 803.485 707.868C780.497 693.008 757.692 677.867 734.794 662.868C715.572 650.279 680.98 635.626 665.209 618.796C648.614 601.086 645.495 557.188 634.443 536.209C623.68 515.775 593.214 502.446 569.756 502.446C530.927 502.446 501.507 500.49 469.579 535.891C453.65 553.554 466.324 571.41 449.627 588.363C434.276 603.95 395.018 619.968 375.232 629.012C351.535 639.844 327.24 649.408 302.592 657.926C277.45 666.617 251.673 673.094 226.39 681.296C202.155 689.157 170.509 721.561 151.695 738.706C134.203 754.647 129.862 752.862 116.565 772.227C87.3807 814.726 58.1646 857.712 34.9244 903.726C23.3485 926.646 12.1398 950.756 7.93974 976.211C3.45969 1003.36 7.90167 1029.6 15.167 1055.88C22.5625 1082.63 46.0471 1108.1 53.698 1134.79C57.2239 1147.08 45.1211 1160.5 50.688 1172.09C53.4684 1177.88 56.9697 1183.03 60.956 1188.07C64.0275 1191.96 76.0054 1191.1 77.5552 1195.85C79.121 1200.66 70.4552 1210.62 70.3263 1215.6C70.1433 1222.71 69.8559 1229.82 69.6189 1236.94L68.2189 1278.99C67.2991 1306.63 66.3792 1334.27 65.4594 1361.9C65.1585 1370.92 64.7201 1379.74 66.9147 1388.3C66.1226 1387.57 65.3698 1386.78 64.682 1385.9C62.6692 1383.31 58.4004 1385.51 60.1087 1388.53C62.9603 1393.59 67.0608 1397.15 71.8786 1399.71C77.4774 1407.84 925.375 1426.01 929.546 1402.23C931.887 1388.88 927.627 1374.6 925.924 1361.34C924.15 1347.53 922.043 1333.78 920.53 1319.93Z" fill="white"/>
<path fill-rule="evenodd" clip-rule="evenodd" d="M59.2285 976.259C61.3027 970.403 70.7909 972.937 68.7019 978.832C57.9635 1009.15 65.5813 1042.14 77.1904 1071.08C79.5201 1076.88 70.0147 1079.38 67.717 1073.65C55.5049 1043.21 47.9498 1008.1 59.2285 976.259ZM131.23 1149.42C161.514 1153.62 191.823 1156.21 222.316 1158.3C223.68 1158.4 224.859 1158.2 225.878 1157.76C224.969 1171.52 224.232 1185.3 223.655 1199.07C215.341 1198.84 206.855 1199.39 198.615 1199.17C187.844 1198.88 177.086 1198.35 166.341 1197.54C145.537 1195.98 124.77 1193.52 104.2 1190.1C96.5118 1188.83 86.7486 1188.06 77.9923 1185.54C69.7151 1183.16 62.3466 1179.21 58.4781 1171.78C55.1868 1165.48 54.5851 1157.77 54.5851 1150.81C54.5851 1146.02 55.4202 1141.15 55.9237 1136.32C56.55 1135.89 57.1149 1135.37 57.5693 1134.79C66.7062 1137.63 76.187 1139.63 85.4713 1141.56C100.589 1144.74 115.928 1147.3 131.23 1149.42ZM114.15 1037.5C114.317 1046.76 116.914 1055.16 121.967 1062.95C125.386 1068.22 116.88 1073.07 113.484 1067.84C107.535 1058.66 104.521 1048.37 104.325 1037.5C104.212 1031.26 114.037 1031.28 114.15 1037.5ZM890.455 1138.43C894.555 1138.66 898.681 1138.79 902.794 1139.01C906.422 1142.07 911.445 1143.63 916.032 1142.66C916.19 1143.05 916.334 1143.49 916.465 1144C917.276 1147.11 917.681 1150.45 918.148 1153.62C918.614 1156.74 918.971 1159.89 919.216 1163.04C919.339 1164.62 920.113 1168.21 919.13 1169.59C918.246 1170.83 916.293 1170.72 914.942 1170.88C911.307 1171.27 907.623 1171.45 903.963 1171.75C897.049 1172.35 890.135 1172.94 883.233 1173.53C876.467 1174.11 869.037 1173.93 862.417 1175.69C861.288 1162.6 860.256 1149.52 859.298 1136.42C869.553 1137.91 880.274 1137.87 890.455 1138.43ZM30.6498 1116.73C34.7761 1124.58 38.5832 1132.31 46.4797 1137.03C47.5113 1137.63 48.6657 1137.96 49.8447 1138.04C48.9605 1141.78 48.4078 1145.61 47.9166 1149.14C46.8359 1156.93 46.6025 1164.97 48.5798 1172.65C50.5078 1180.12 53.7009 1186.79 59.9641 1191.57C62.8746 1193.8 66.0554 1195.49 69.3957 1196.83C68.8308 1198.39 68.4993 1199.94 68.6712 1201.65C67.8729 1205.61 67.3449 1209.64 66.7677 1213.5C65.5027 1222.07 64.2378 1230.65 63.2431 1239.27C61.2536 1256.41 59.6939 1273.55 58.3799 1290.75C57.0658 1307.9 56.1202 1325.08 55.3342 1342.26C54.9289 1351.05 54.5728 1359.84 54.2412 1368.64C53.9096 1377.68 52.4237 1386.93 56.4763 1395.32C59.743 1402.09 70.7835 1401.71 74.173 1395.32C78.4713 1387.19 77.2064 1377.55 77.3169 1368.64C77.4274 1360.25 77.5748 1351.85 77.759 1343.46C78.1274 1326.29 78.6678 1309.12 79.0976 1291.95C79.5151 1275.18 80.0309 1258.43 80.3748 1241.67C80.5467 1232.89 80.559 1224.11 80.6081 1215.34C80.6327 1210.47 80.8415 1205.28 80.473 1200.21C83.5433 1200.92 86.638 1201.53 89.6959 1202.15C113.042 1206.87 136.633 1210.3 160.372 1212.43C172.297 1213.5 184.258 1214.25 196.22 1214.67C205.013 1214.99 214.125 1215.59 223.053 1215.27C222.353 1236.28 222.034 1257.3 222.071 1278.33C222.095 1293.5 222.304 1308.66 222.685 1323.83C222.894 1331.8 223.066 1339.78 223.311 1347.76C223.422 1351.34 223.422 1354.96 223.667 1358.53C223.741 1359.64 223.901 1360.72 224.11 1361.79C223.299 1364.05 222.624 1366.29 222.071 1368.38C219.369 1378.55 219.369 1388.32 220.573 1398.68C221.604 1407.47 229.108 1415.61 239.018 1412.53C240.627 1412.03 242.236 1411.51 243.832 1410.98C258.422 1412.61 273.098 1412.99 287.896 1413.26C309.523 1413.68 331.161 1413.81 352.8 1413.92C395.243 1414.14 437.697 1414.25 480.152 1414.37C565.467 1414.61 650.782 1414.84 736.097 1415.08C759.774 1415.15 783.452 1415.21 807.129 1415.29C819.385 1415.32 831.617 1415.33 843.861 1415.8C849.572 1416.01 855.295 1416.32 861.005 1416.4C867.624 1416.51 873.482 1414.63 879.807 1412.93C883.381 1411.95 884.793 1408.41 884.032 1405.42C889.754 1406.76 896.693 1403.91 898.646 1397.55C900.07 1392.94 899.542 1387.94 897.418 1383.67V1383.66C893.316 1358.13 888.109 1332.72 884.019 1307.18C879.537 1279.21 875.226 1251.18 871.432 1223.1C868.582 1201.89 866.237 1216.92 864.21 1195.62C873.04 1196.3 883.025 1193.65 891.769 1192.52C898.044 1191.73 904.369 1191.08 910.656 1190.24C910.19 1196.48 910.325 1202.85 910.153 1208.84C909.821 1220.74 909.969 1232.59 910.276 1244.49C910.865 1267.45 912.179 1254.08 914.279 1276.95C916.404 1299.98 919.007 1322.93 922.164 1345.86C923.785 1357.66 925.516 1369.45 927.346 1381.23C928.193 1386.72 929.065 1392.2 929.962 1397.7C931.03 1404.17 931.374 1410.31 936.299 1415.18C940.044 1418.87 947.695 1418.55 950.176 1413.41C953.32 1406.91 951.895 1401.34 950.729 1394.52C949.783 1389.03 948.874 1383.55 947.978 1378.07C946.062 1366.31 944.244 1354.55 942.537 1342.77C939.246 1320.08 936.139 1297.34 933.364 1274.59C930.564 1251.65 927.665 1265.05 924.914 1242.11C923.527 1230.54 922.139 1218.99 920.518 1207.46C919.695 1201.53 919.179 1195.21 918.099 1189.1C918.442 1189.05 918.786 1188.99 919.13 1188.93C926.597 1187.58 932.971 1183.43 934.85 1175.86C936.643 1168.61 934.506 1160.27 932.995 1153.15C931.706 1147.09 930.54 1139.35 926.581 1134.16C940.532 1116.64 949.606 1094.6 955.394 1073.41C961.699 1050.33 964.338 1026.24 964.897 1002.38C965.546 974.744 963.432 947.268 958.627 920.247C958.514 914.521 958.246 908.797 957.815 903.079C953.59 846.965 935.857 780.55 879.635 754.332C879.414 754.224 879.181 754.126 878.947 754.029C874.539 748.837 869.037 744.164 864.591 739.796C856.719 732.048 848.491 724.641 839.772 717.814C822.505 704.295 803.568 693.498 783.882 683.777C763.974 673.937 743.772 664.702 724.32 653.965C707.372 644.596 692.119 633.315 677.64 620.582C661.368 606.263 649.787 586.957 645.243 565.884C645.01 564.783 643.352 565.086 643.328 566.138C642.136 604.762 668.589 638.895 699.033 660.489C735.434 686.284 779.387 698.496 816.303 723.504C825.477 729.713 834.061 736.722 842.228 744.164C829.714 742.906 816.978 743.704 805.25 747.118C800.633 746.839 795.99 746.756 791.361 746.537C780.775 746.016 770.176 745.533 759.578 745.072C737.976 744.129 716.362 743.27 694.747 742.519C652.342 741.042 609.924 739.928 567.506 739.191C482.265 737.701 396.913 737.41 311.684 739.844C288.572 740.498 167.041 735.959 155.791 737.241C172.334 723.128 190.485 711.606 210.441 702.127C235.408 690.301 261.21 682.409 287.872 675.195C342.779 660.344 399.799 646.025 443.74 608.296C454.657 598.916 464.359 588.132 472.305 576.185C479.894 564.783 488.331 550.185 488.54 536.277C488.687 526.401 474.736 522.805 469.775 531.266C466.693 536.507 465.17 542.257 462.652 547.752C460.147 553.199 457.175 558.452 453.871 563.476C447.375 573.353 439.319 582.164 430.55 590.116C411.859 607.086 389.213 619.517 365.781 628.922C312.581 650.261 254.394 659.267 203.981 687.398C181.925 699.706 160.814 716.689 147.563 738.354C145.426 738.682 143.302 739.069 141.177 739.504C142.761 737.531 144.358 735.56 145.967 733.598C147.023 732.315 145.389 730.621 144.1 731.758C119.035 753.739 95.9469 777.475 75.0204 803.353C55.0026 828.118 36.3358 854.07 23.1216 883.072C-0.629484 935.168 -5.86111 994.755 6.40743 1050.46C9.74781 1065.64 14.4636 1080.5 20.469 1094.87C23.5637 1102.29 26.9164 1109.6 30.6498 1116.73Z" fill="#060931"/>
<path fill-rule="evenodd" clip-rule="evenodd" d="M571.766 30.2326C641.498 30.2326 728.833 108.632 754.394 141.994C775.885 170.043 772.844 314.542 772.844 400.259C772.844 418.187 764.622 452.116 761.638 469.264C750.7 532.102 703.047 584.802 608.732 584.802C531.937 584.802 472.839 560.828 415.69 499.51C402.652 485.521 338.978 535.601 325.956 517.566C291.942 517.566 263.501 204.34 330.282 110.39C397.064 16.4407 502.035 30.2326 571.766 30.2326Z" fill="white"/>
<path fill-rule="evenodd" clip-rule="evenodd" d="M362.182 52.2952C402.476 16.1645 456.155 -1.21689 510.314 0.066145C538.363 0.731869 566.314 5.99714 592.804 15.0147C606.055 19.5416 618.888 25.4484 631.157 32.1298C635.578 34.532 639.654 37.3467 643.578 40.336L644.555 41.0868H644.568C655.092 44.8149 664.487 51.5084 673.01 59.3397C690.093 57.9962 707.31 59.5092 723.828 64.7018C746.818 71.9401 768.1 85.194 783.046 104.016C800.455 125.928 806.243 152.507 804.178 179.945L803.797 184.606C801.754 208.844 798.096 240.02 777.913 255.946C776.378 257.156 774.683 258.076 772.927 258.633C785.932 280.59 796.604 304.967 802.99 329.587C827.368 423.624 808.627 521.691 779.313 612.326C776.906 619.794 765.448 624.757 759.614 617.458C749.2 604.41 734.07 594.46 717.049 592.596C706.549 591.446 696.098 593.528 686.175 588.832C682.282 586.98 678.524 583.954 675.822 580.274C659.071 586.532 641.031 589.486 623.138 588.759C593.774 587.573 562.384 577.551 542.182 555.57C538.94 552.042 538.119 548.08 538.865 544.509C541.399 543.618 544 542.955 546.68 542.54C572.298 557.421 600.536 567.364 630.884 567.989C648.42 568.349 665.525 565.932 679.744 555.14C682.82 552.804 685.649 550.218 688.265 547.439C717.993 528.59 738.953 496.576 748.918 462.284C758.202 430.305 757.06 397.007 753.867 364.205L752.182 346.895C749.727 321.49 747.449 296.009 746.81 270.495L747.003 270.485C753.281 270.086 753.327 260.399 747.003 260.802C730.646 261.846 714.414 259.201 698.107 260.353C697.971 252.755 697.416 245.192 695.15 237.864C693.857 233.677 686.46 232.851 685.676 237.864C684.628 244.569 684.245 251.238 684.13 257.973C659.727 257.654 635.347 255.63 610.94 256.462C606.438 251.729 605.005 243.337 602.899 237.499C602.592 236.64 602.285 235.793 601.966 234.933C600.115 243.276 597.492 251.435 594.041 259.422L588.055 259.442C554.093 259.599 519.439 260.6 486.275 267.551C483.97 265.807 482.598 262.764 482.228 260.001C479.822 242.019 476.389 224.516 470.304 207.38L469.433 204.962C469.362 204.762 469.287 204.549 469.209 204.325C464.725 211.458 459.375 218.106 453.541 224.298C450.102 227.947 446.496 231.437 442.796 234.827C439.202 238.761 435.487 242.635 431.886 246.581C432.027 247.299 432.15 248.028 432.249 248.77C433.351 256.958 433.465 265.263 432.658 273.482C431.199 288.343 426.943 302.662 420.105 315.908L419.889 317.235C418.85 323.443 417.373 329.858 413.923 334.533C418.228 339.287 421.546 344.967 423.469 351.276C425.181 356.894 417.295 361.762 413.206 357.165C409.957 353.513 406.348 350.491 402.384 348.08C402.133 348.415 401.681 348.58 401.174 348.3C390.134 342.26 371.381 344.088 360.353 349.777C346.635 356.846 341.281 371.358 342.803 386.065C344.265 400.118 350.503 416.543 362.6 423.745C368.151 427.049 372.474 427.327 378.369 425.742C380.253 425.237 382.59 423.69 383.593 422.921L384.58 422.141C388.445 419.131 392.044 417.07 396.606 416.991C401.271 415.557 405.961 417.546 407.745 422.368L407.855 422.68C408.69 425.137 410.213 428.223 409.881 431.975C409.537 435.994 407.671 439.649 404.883 442.591C404.404 443.099 403.888 443.607 403.36 444.08C451.378 495.316 457.543 575.154 432.92 639.161C431.852 641.969 430.709 644.741 429.518 647.488C425.404 656.905 409.562 653.988 407.548 644.656C406.946 641.86 406.283 639.076 405.558 636.316C404.227 631.216 402.701 626.164 400.981 621.186L400.327 619.322C398.865 615.207 397.502 611.055 396.028 606.94L395.881 606.469C395.826 606.283 395.764 606.068 395.697 605.826L393.204 611.188L385.627 627.371C382.081 634.923 370.815 630.819 370.396 623.542L370.386 623.292C370.349 621.949 370.3 620.617 370.214 619.298C369.674 609.409 367.942 599.798 365.191 590.393L364.199 591.609C349.42 609.617 332.076 626.496 308.282 630.652C302.313 631.692 295.559 625.544 299.661 619.601C301.356 617.143 302.989 614.626 304.536 612.072C303.198 611.454 301.933 610.813 300.766 610.159C291.74 605.16 284.224 598.043 278.01 589.97C264.832 572.855 260.117 551.309 258.962 530.224C257.734 507.941 259.724 484.447 265.901 462.95C268.578 453.654 272.201 444.733 276.389 436.079C276.094 435.304 275.811 434.529 275.529 433.755C271.01 421.336 267.301 408.639 264.218 395.796C258.004 369.87 254.664 343.12 254.259 316.478C253.522 268.752 261.873 220.263 279.471 175.757C297.647 129.858 324.984 85.6419 362.182 52.2952ZM339.549 469.571C336.211 464.391 327.861 469.059 330.96 474.274L331.075 474.461C336.368 482.679 338.849 492.024 341.895 501.186C343.847 507.081 353.34 504.564 351.363 498.608L350.709 496.62C347.678 487.328 344.913 477.885 339.549 469.571ZM368.618 370.705L370.835 369.647C377.829 366.357 383.958 364.117 392.221 366.989C403.286 370.826 415.137 383.039 407.658 394.888C404.907 399.258 400.02 401.001 394.985 399.972C386.496 398.237 384.306 390.703 379.998 384.519L379.257 383.471C376.63 379.729 373.309 374.556 368.937 373.089C367.942 372.75 367.525 371.225 368.618 370.705ZM374.855 119.111L375.569 118.48C380.321 114.341 373.346 107.514 368.618 111.629C346.979 130.475 339.463 159.973 328.238 185.113C325.721 190.766 334.182 195.704 336.724 190.003C347.432 166.013 354.539 137.316 374.855 119.111ZM634.89 110.867C629.236 108.356 624.29 116.465 629.725 119.135L629.929 119.231C649.038 127.74 657.168 147.009 664.954 164.899C667.435 170.612 675.896 165.686 673.44 160.021L672.035 156.811C663.911 138.375 654.435 119.583 634.89 110.867ZM664.843 99.2226C658.85 97.177 656.284 106.521 662.227 108.567C678.426 114.123 689.54 126.106 698.91 139.808C702.423 144.94 710.933 140.098 707.384 134.918C696.503 119.013 683.584 105.662 664.843 99.2226Z" fill="black"/>
<path fill-rule="evenodd" clip-rule="evenodd" d="M631.955 499.809C623.699 496.489 616.333 490.952 610.948 483.879C609.076 481.42 608.59 478.824 608.983 476.449C609.425 473.779 611.028 471.358 613.214 469.735C615.406 468.107 618.149 467.304 620.801 467.713C623.105 468.069 625.399 469.312 627.214 471.891L627.594 472.407C630.795 476.676 634.967 480.179 639.721 482.436C644.303 484.612 649.427 485.628 654.73 485.037C664.829 483.913 671.791 478.53 679.189 471.219C680.107 470.296 681.024 469.344 681.946 468.377C682.529 467.5 683.337 466.937 684.234 466.641C685.231 466.313 686.358 466.331 687.39 466.686C688.385 467.029 689.275 467.678 689.872 468.541C690.439 469.362 690.761 470.376 690.657 471.543C689.979 479.119 685.961 485.88 680.252 491.189C673.912 497.086 665.508 501.165 657.596 502.596C648.88 504.172 639.997 503.042 631.955 499.809ZM661.708 382.933C670.982 388.488 685.112 401.443 675.136 415.217C663.393 427.362 646.485 413.437 638.154 407.139C630.428 402.259 621.748 414.811 628.916 420.51C689.121 464.442 713.553 384.385 666.399 376.4C661.207 375.52 659.279 381.214 661.708 382.933ZM553.82 331.828C554.845 319.293 574.215 316.446 576.142 328.851C577.867 339.962 575.836 350.17 570.758 360.174C565.906 369.731 553.71 365.272 552.788 356.569C551.552 344.903 553.183 339.626 553.82 331.828ZM701.268 326.279C703.969 322.793 707.868 320.413 712.54 321.758C727.135 325.962 722.833 346.385 717.707 356.326C714.922 361.724 705.919 363.093 701.85 358.34C695.219 350.588 692.043 335.109 700.474 327.473C700.702 327.079 700.956 326.681 701.268 326.279ZM570.552 276.978L572.858 276.58C579.99 275.364 588.859 274.196 593.904 279.848C596.58 282.844 597.501 288.415 593.904 291.283C587.577 296.331 580.582 294.375 573 294.802C566.751 295.156 560.746 296.175 554.727 297.87C541.523 301.59 530.764 308.38 519.486 315.837C518.006 316.815 516.496 314.949 517.202 313.585C523.712 301.018 536.328 290.694 548.965 284.401C555.71 281.042 563.09 278.256 570.552 276.978ZM687.963 271.348L689.728 271.704C708.932 275.66 733.882 283.563 742.976 302.155C743.322 304.783 742.956 305.347 742.658 305.715L742.559 305.837C742.314 306.152 742.118 306.585 740.962 306.943C740.641 306.867 740.317 306.788 739.99 306.703C735.821 305.626 732.523 304.143 729.33 302.604L725.868 300.923C721.852 298.982 717.8 297.112 713.506 295.731C704.342 292.785 694.916 290.709 685.343 289.601C683.269 289.361 681.271 288.671 679.695 287.488C678.199 286.366 677.056 284.811 676.535 282.745C675.859 280.071 676.054 278.047 677.509 275.635C678.604 273.823 680.17 272.568 681.968 271.847C683.801 271.112 685.888 270.938 687.963 271.348Z" fill="black"/>
<path fill-rule="evenodd" clip-rule="evenodd" d="M765.259 393.767C756.99 404.715 741.662 408.202 727.523 406.998C697.028 404.105 687.431 369.97 686.431 343.439C706.88 349.109 684.702 308.955 754.603 304.539C779.245 302.516 772.451 317.183 783.338 327.9C783.114 350.392 779.316 374.831 765.259 393.767ZM620.013 367.922C602.009 451.02 503.421 431.254 493.065 356.347C502.628 349.695 500.109 333.268 511.989 327.317C530.818 315.46 554.356 315.967 575.738 316.245C603.069 318.096 610.857 329.255 624.897 341.429C624.221 349.56 622.274 359.198 620.013 367.922ZM804.313 290.777C803.303 290.611 802.291 290.455 801.279 290.309C800.489 289.867 799.562 289.527 798.484 289.322C796.021 288.706 793.576 288.291 791.135 288.067C756.095 280.295 675.033 291.33 671.688 320.801C660.53 324.472 650.874 321.185 637.941 321.512C628.097 280.957 457.906 286.681 449.721 311.131C449.69 311.123 449.659 311.115 449.627 311.106C441.763 308.707 430.168 309.285 421.167 308.905C401.946 308.508 382.703 310.197 363.897 314.192C328.682 319.708 280.621 326.166 305.113 369.508C305.118 369.515 305.121 369.524 305.127 369.531L305.131 369.527C309.352 373.791 316.515 370.358 316.782 364.585C308.548 344.052 327.146 341.586 341.455 335.685C377.061 323.078 413.312 321.33 450.137 325.23C452.908 328.445 457.111 331.248 461.554 332.715C486.176 336.743 473.2 354.745 488.764 357.363C485.905 420.113 563.202 454.365 607.988 413.115C625.871 395.884 630.133 370.358 634.279 347.349C636.471 346.864 637.865 345.682 638.679 344.118C643.952 338.931 647.264 334.14 657.689 332.715C668.114 331.292 676.14 334.149 677.225 335.025C677.499 335.568 677.793 336.113 678.134 336.657C678.611 337.47 679.259 338.117 679.996 338.627C669.701 401.113 718.919 440.63 768.606 408.222C790.195 388.205 794.758 357.56 795.659 330.207C798.586 328.467 800.439 325.093 799.426 320.852C798.029 315.006 801.303 309.944 806.518 307.402C813.293 304.101 812.095 292.047 804.313 290.777Z" fill="black"/>
</g>
</svg>
